<svg width="375" height="184" viewBox="0 0 375 184" fill="none" xmlns="http://www.w3.org/2000/svg">
<path d="M64.0838 85.8758L64.733 86.5242C60.0486 102.631 49.5085 110.297 34.5513 110.297C13.4712 110.297 0.461639 94.8382 0.461639 75.7311C0.461639 53.2552 18.283 41.4324 37.67 41.4324C49.9031 41.4324 59.5266 45.5895 64.733 54.1705L49.3812 63.7812L38.5738 47.4074C31.4198 48.1828 25.0424 56.3698 25.0424 70.0231C25.0424 84.452 32.3364 93.0203 44.5567 93.0203C49.6231 93.0203 56.7898 91.4694 64.0711 85.8758H64.0838Z" fill="#9D2235"/>
<path d="M144.612 96.148C141.621 106.026 134.339 110.31 126.002 110.31C119.102 110.31 113.768 107.322 110.65 101.08H110.001C105.838 106.28 99.4605 110.31 90.4862 110.31C79.1696 110.31 71.8756 103.941 71.8756 93.8088C71.8756 85.749 76.5601 80.1682 82.0338 77.0536H109.351V70.0362C109.351 59.7644 104.412 56.6498 96.0744 56.6498C90.0916 56.6498 83.9686 58.2135 76.0382 63.146L75.3889 62.4976C81.2445 51.1961 91.7846 41.4455 108.829 41.4455C124.054 41.4455 133.156 49.3655 133.156 63.146V91.3426C133.156 96.4022 135.243 97.8387 138.095 97.8387C140.055 97.8387 141.875 97.1904 143.95 95.4996L144.599 96.148H144.612ZM109.351 95.4996V82.3802H96.3417C93.9995 84.8464 92.8284 87.9737 92.8284 91.0883C92.8284 96.5421 96.0872 99.4024 100.632 99.4024C103.75 99.4024 106.614 98.1057 109.351 95.4996Z" fill="#9D2235"/>
<path d="M229.573 109.012H191.575L198.475 101.219V64.314C198.475 56.6483 195.089 54.3091 189.628 54.3091C186.636 54.3091 182.601 55.0846 178.044 58.339V101.219L184.943 109.012H146.946L153.845 101.219V61.4536L147.468 54.0422L178.044 40.6558L176.096 53.1269L176.745 53.7752C182.996 47.1519 190.532 41.4312 203.287 41.4312C213.177 41.4312 222.674 45.8552 222.674 61.1867V101.206L229.573 108.999V109.012Z" fill="#9D2235"/>
<path d="M240.974 87.5671V52.0861H228.347L265.173 26.4828V42.7296H290.161L286.253 52.0861H265.173V80.8039C265.173 87.6942 267.515 93.0208 275.713 93.0208C279.749 93.0208 284.306 91.7241 289.117 87.9612L289.767 88.6095C286.521 102.771 277.139 110.31 264.269 110.31C249.44 110.31 240.974 100.699 240.974 87.5671Z" fill="#9D2235"/>
<path d="M374.354 100.431L350.283 110.83L343.778 97.9652H343.129C339.234 102.643 329.075 110.309 317.11 110.309C307.091 110.309 298.499 106.025 298.499 90.5537V61.4418L292.122 54.0303L322.698 40.6439V87.4264C322.698 94.965 326.084 97.4313 330.374 97.4313C333.365 97.4313 337.273 96.6558 341.818 93.4014V61.4291L335.44 54.0176L366.016 40.6312V92.9946L374.342 100.406L374.354 100.431Z" fill="#9D2235"/>
<path d="M56.0941 17.5288L49.7741 0.61615L9.65208 15.5614L15.972 32.474L56.0941 17.5288Z" fill="#C5B783"/>
<path d="M244.064 146.127H243.553C243.043 146.127 242.634 146.587 242.532 147.097L237.578 174.917V175.122C237.578 175.53 237.833 175.888 238.293 175.888H238.804C239.314 175.888 239.723 175.428 239.825 174.917L244.779 147.097V146.893C244.779 146.485 244.524 146.127 244.064 146.127Z" fill="black"/>
<path d="M231.241 146.127H225.917C225.522 146.127 225.113 146.485 225.062 147.034L222.062 169.057C222.011 169.504 222.011 169.81 221.806 169.81C221.602 169.81 221.602 169.504 221.5 169.057L217.185 155.524C216.878 154.324 216.176 153.264 214.018 153.264H210.558C208.401 153.264 207.699 154.324 207.392 155.524L203.077 169.057C202.975 169.504 202.975 169.81 202.77 169.81C202.566 169.81 202.566 169.504 202.515 169.057L199.413 147.034C199.362 146.485 198.966 146.127 198.557 146.127H193.246C192.799 146.127 192.391 146.383 192.391 146.829V146.983L196.591 171.815C197.038 174.981 198.493 175.875 201.111 175.875H203.817C206.077 175.875 207.277 174.777 207.979 171.866L211.937 159.38C212.039 158.933 212.091 158.831 212.282 158.831C212.474 158.831 212.486 158.933 212.588 159.38L216.546 171.866C217.248 174.777 218.449 175.875 220.708 175.875H223.415C226.02 175.875 227.475 174.968 227.935 171.815L232.033 146.983V146.829C232.033 146.383 231.637 146.127 231.178 146.127H231.241Z" fill="black"/>
<path d="M275.034 146.127H274.421C273.91 146.127 273.553 146.587 273.451 147.097L268.842 173.334C268.791 173.538 268.535 173.743 268.484 173.743C268.484 173.743 268.472 173.743 268.459 173.743C268.459 173.743 268.433 173.743 268.42 173.743C268.267 173.717 268.216 173.577 268.178 173.398L259.892 147.71C259.586 146.842 258.922 146.14 257.607 146.14C257.543 146.14 257.466 146.14 257.402 146.14C257.402 146.14 257.338 146.14 257.3 146.14C256.292 146.242 255.13 146.893 254.811 148.604L250.125 174.917V175.122C250.125 175.53 250.38 175.888 250.84 175.888H251.351C251.861 175.888 252.27 175.428 252.372 174.917L257.058 148.604C257.096 148.387 257.224 148.285 257.313 148.259C257.313 148.259 257.351 148.259 257.364 148.259C257.377 148.259 257.39 148.259 257.415 148.259C257.607 148.285 257.773 148.425 257.824 148.617L266.11 174.253C266.518 175.517 267.169 175.875 268.433 175.875C268.433 175.875 268.446 175.875 268.459 175.875C269.71 175.875 270.821 174.956 271.127 173.334L275.736 147.097V146.893C275.736 146.485 275.532 146.127 275.021 146.127H275.034Z" fill="black"/>
<path d="M301.63 146.408C301.464 146.217 301.209 146.102 300.902 146.102L290.382 146.127C286.884 146.127 284.981 147.608 284.432 150.749L280.819 171.189C280.551 172.734 280.73 173.858 281.381 174.637C282.083 175.466 283.322 175.875 285.186 175.875H285.211L295.731 175.849C296.293 175.849 296.778 175.479 296.868 174.981L296.919 174.662C296.957 174.42 296.919 174.215 296.766 174.049C296.6 173.858 296.331 173.756 296.012 173.756L285.492 173.781H285.454C284.573 173.781 283.692 173.717 283.296 173.232C282.99 172.862 282.913 172.224 283.079 171.279L284.828 161.397L298.285 161.371C298.847 161.371 299.332 161.001 299.421 160.503L299.485 160.107C299.523 159.865 299.485 159.661 299.332 159.495C299.166 159.303 298.898 159.201 298.578 159.201L285.211 159.227L286.692 150.851C287.088 148.642 288.097 148.259 290.088 148.247L300.608 148.221C301.196 148.221 301.643 147.889 301.732 147.391L301.783 147.072C301.821 146.83 301.77 146.6 301.617 146.421L301.63 146.408Z" fill="black"/>
<path d="M97.7611 146.331C97.2887 146.254 92.9223 145.616 87.5983 145.616C85.6833 145.616 82.0318 145.961 79.006 148.246C76.1206 150.429 74.6523 153.736 74.6523 158.051V163.797C74.6523 173.576 82.6957 176.194 87.4579 176.194C91.7477 176.194 95.0289 175.976 97.7739 175.517C98.4505 175.389 98.7952 175.006 98.7952 174.406V161.013C98.7952 160.49 98.2973 160.068 97.6973 160.068H93.0244C92.4371 160.068 91.9775 160.49 91.9775 161.013V171.036C90.522 171.112 89.0921 171.15 87.4579 171.15C84.6108 171.15 81.5722 169.223 81.5722 163.809V158.064C81.5722 155.843 82.1595 150.685 87.5983 150.685C91.3136 150.685 94.6586 150.787 97.5568 151.004H97.6973C98.4761 151.004 98.7952 150.723 98.7952 150.008V147.34C98.7952 146.65 98.3101 146.459 97.7739 146.356L97.7611 146.331Z" fill="black"/>
<path d="M114.116 153.953C111.856 153.953 110.043 154.439 107.707 155.69V155.102C107.707 154.553 107.285 154.158 106.711 154.158H106.328C105.753 154.158 105.332 154.553 105.332 155.102V174.956C105.332 175.441 105.817 175.862 106.379 175.862H106.66C107.222 175.862 107.707 175.441 107.707 174.956V157.579C110.069 156.341 111.997 155.805 114.116 155.805C114.537 155.805 115.546 155.805 115.546 155.013V154.694C115.546 153.941 114.55 153.941 114.116 153.941V153.953Z" fill="black"/>
<path d="M137.149 154.159H136.868C136.306 154.159 135.821 154.581 135.821 155.066V172.621C133.919 173.349 131.135 174.204 128.518 174.204H128.429C125.633 174.204 122.3 173.183 122.3 168.293V155.053C122.3 154.555 121.841 154.147 121.305 154.147H120.973C120.398 154.147 119.926 154.555 119.926 155.053V168.293C119.926 173.234 123.003 176.055 128.378 176.055C130.638 176.055 133.268 175.506 135.821 174.498V174.906C135.821 175.455 136.242 175.851 136.83 175.851H137.213C137.787 175.851 138.208 175.455 138.208 174.906V155.053C138.208 154.568 137.723 154.147 137.162 154.147L137.149 154.159Z" fill="black"/>
<path d="M153.284 153.954C149.99 153.954 146.364 154.542 145.33 154.72C144.704 154.848 144.5 155.078 144.5 155.627V182.744C144.5 183.255 144.921 183.651 145.458 183.651H145.93C146.466 183.651 146.887 183.255 146.887 182.744V175.557C148.688 175.888 151.407 176.118 153.297 176.118C159.54 176.118 162.693 172.863 162.693 166.441V163.811C162.693 157.465 159.348 153.967 153.297 153.967L153.284 153.954ZM146.875 156.316C148.062 156.15 150.794 155.818 153.284 155.818C158.135 155.818 160.306 158.282 160.306 163.798V166.428C160.306 171.841 158.135 174.254 153.284 174.254C151.535 174.254 148.7 174.076 146.875 173.756V156.316Z" fill="black"/>
<path d="M177.443 153.954C171.072 153.954 167.574 157.389 167.574 163.632V166.428C167.574 172.671 171.085 176.106 177.443 176.106C183.801 176.106 187.312 172.671 187.312 166.428V163.632C187.312 157.389 183.801 153.954 177.443 153.954ZM184.938 163.632V166.428C184.938 171.688 182.486 174.254 177.443 174.254C172.4 174.254 169.949 171.701 169.949 166.428V163.632C169.949 158.372 172.4 155.806 177.443 155.806C182.486 155.806 184.938 158.359 184.938 163.632Z" fill="black"/>
</svg>
